# xmcd
# 
# Track frame offsets:
#     150
#     26016
#     55773
#     88117
#     114345
#     144255
#     176537
#     197777
# 
# Disc length: 2963
# 
# Revision: 0
# Processed by: cddbd v1.5.2PL0 Copyright (c) Steve Scherf et al.
# Submitted via: BonkEnc v1.0.8
# 
DISCID=640b9108
DTITLE=KIRCHENBRAND - ABGANG
DYEAR=2011
DGENRE=Black Metal
TTITLE0=Amok
TTITLE1=Ein Lied für Suizid
TTITLE2=Isolation
TTITLE3=Schädel unter dem Fleisch
TTITLE4=Abgeschlachtet wie Vieh
TTITLE5=Kirchenbrand
TTITLE6=Endzeit
TTITLE7=Abgang
EXTD=www.terror-records.com
EXTT0=
EXTT1=
EXTT2=
EXTT3=
EXTT4=
EXTT5=
EXTT6=
EXTT7=
PLAYORDER=
